<?xml version="1.0" encoding="utf-8"?>
<svg width="61px" height="56px" viewBox="0 0 61 56" version="1.1" xmlns:xlink="http://www.w3.org/1999/xlink" xmlns="http://www.w3.org/2000/svg">
  <defs>
    <filter filterUnits="userSpaceOnUse" color-interpolation-filters="sRGB" id="filter_1">
      <feFlood flood-opacity="0" result="BackgroundImageFix" />
      <feColorMatrix in="SourceAlpha" type="matrix" values="0 0 0 0 0 0 0 0 0 0 0 0 0 0 0 0 0 0 127 0" />
      <feOffset dx="0" dy="5" />
      <feGaussianBlur stdDeviation="2" />
      <feColorMatrix type="matrix" values="0 0 0 0 0 0 0 0 0 0 0 0 0 0 0 0 0 0 0.49803922 0" />
      <feBlend mode="normal" in2="BackgroundImageFix" result="effect0_dropShadow" />
      <feBlend mode="normal" in="SourceGraphic" in2="effect0_dropShadow" result="shape" />
    </filter>
    <path d="M0 0L44 0L44 44L0 44L0 0Z" id="path_1" />
    <clipPath id="mask_1">
      <use xlink:href="#path_1" />
    </clipPath>
  </defs>
  <g id="Group">
    <path d="M7.999 0L53.001 0Q53.1974 0 53.3935 0.00963514Q53.5896 0.0192703 53.785 0.0385174Q53.9805 0.0577644 54.1747 0.0865771Q54.3689 0.11539 54.5615 0.153699Q54.7541 0.192007 54.9446 0.23972Q55.1351 0.287433 55.323 0.344434Q55.5109 0.401436 55.6958 0.467589Q55.8807 0.533742 56.0621 0.608888Q56.2435 0.684033 56.421 0.76799Q56.5985 0.851946 56.7717 0.944512Q56.9449 1.03708 57.1133 1.13803Q57.2817 1.23898 57.445 1.34807Q57.6083 1.45717 57.766 1.57414Q57.9237 1.69112 58.0755 1.81569Q58.2273 1.94026 58.3728 2.07213Q58.5183 2.204 58.6571 2.34285Q58.796 2.4817 58.9279 2.6272Q59.0597 2.7727 59.1843 2.92449Q59.3089 3.07628 59.4258 3.234Q59.5428 3.39172 59.6519 3.55499Q59.761 3.71826 59.862 3.88669Q59.9629 4.05512 60.0555 4.2283Q60.1481 4.40148 60.232 4.57899Q60.316 4.7565 60.3911 4.93791Q60.4663 5.11933 60.5324 5.30422Q60.5986 5.4891 60.6556 5.67701Q60.7126 5.86492 60.7603 6.0554Q60.808 6.24588 60.8463 6.43847Q60.8846 6.63106 60.9134 6.8253Q60.9422 7.01954 60.9615 7.21496Q60.9807 7.41038 60.9904 7.60651Q61 7.80264 61 7.999L61 48.001Q61 48.1974 60.9904 48.3935Q60.9807 48.5896 60.9615 48.785Q60.9422 48.9805 60.9134 49.1747Q60.8846 49.3689 60.8463 49.5615Q60.808 49.7541 60.7603 49.9446Q60.7126 50.1351 60.6556 50.323Q60.5986 50.5109 60.5324 50.6958Q60.4663 50.8807 60.3911 51.0621Q60.316 51.2435 60.232 51.421Q60.148 51.5985 60.0555 51.7717Q59.9629 51.9449 59.862 52.1133Q59.761 52.2817 59.6519 52.445Q59.5428 52.6083 59.4259 52.766Q59.3089 52.9237 59.1843 53.0755Q59.0597 53.2273 58.9279 53.3728Q58.796 53.5183 58.6571 53.6571Q58.5183 53.796 58.3728 53.9279Q58.2273 54.0597 58.0755 54.1843Q57.9237 54.3089 57.766 54.4258Q57.6083 54.5428 57.445 54.6519Q57.2817 54.761 57.1133 54.862Q56.9449 54.9629 56.7717 55.0555Q56.5985 55.148 56.421 55.232Q56.2435 55.316 56.0621 55.3911Q55.8807 55.4663 55.6958 55.5324Q55.5109 55.5986 55.323 55.6556Q55.1351 55.7126 54.9446 55.7603Q54.7541 55.808 54.5615 55.8463Q54.3689 55.8846 54.1747 55.9134Q53.9805 55.9422 53.785 55.9615Q53.5896 55.9807 53.3935 55.9904Q53.1974 56 53.001 56L7.999 56Q7.80264 56 7.60651 55.9904Q7.41038 55.9807 7.21496 55.9615Q7.01954 55.9422 6.8253 55.9134Q6.63106 55.8846 6.43847 55.8463Q6.24588 55.808 6.0554 55.7603Q5.86492 55.7126 5.67701 55.6556Q5.4891 55.5986 5.30422 55.5324Q5.11933 55.4663 4.93791 55.3911Q4.7565 55.316 4.57899 55.232Q4.40148 55.148 4.2283 55.0555Q4.05512 54.9629 3.88669 54.862Q3.71826 54.761 3.55499 54.6519Q3.39172 54.5428 3.234 54.4258Q3.07628 54.3089 2.92449 54.1843Q2.7727 54.0597 2.6272 53.9279Q2.4817 53.796 2.34285 53.6571Q2.204 53.5183 2.07213 53.3728Q1.94026 53.2273 1.81569 53.0755Q1.69112 52.9237 1.57414 52.766Q1.45717 52.6083 1.34807 52.445Q1.23898 52.2817 1.13803 52.1133Q1.03708 51.9449 0.944512 51.7717Q0.851946 51.5985 0.76799 51.421Q0.684033 51.2435 0.608888 51.0621Q0.533742 50.8807 0.467589 50.6958Q0.401436 50.5109 0.344434 50.323Q0.287433 50.1351 0.23972 49.9446Q0.192007 49.7541 0.153699 49.5615Q0.11539 49.3689 0.0865771 49.1747Q0.0577644 48.9805 0.0385174 48.785Q0.0192703 48.5896 0.00963514 48.3935Q0 48.1974 0 48.001L0 7.999Q0 7.80264 0.00963514 7.60651Q0.0192703 7.41038 0.0385174 7.21496Q0.0577644 7.01954 0.0865771 6.8253Q0.11539 6.63106 0.153699 6.43847Q0.192007 6.24588 0.23972 6.0554Q0.287433 5.86492 0.344434 5.67701Q0.401436 5.4891 0.467589 5.30422Q0.533742 5.11933 0.608888 4.93791Q0.684033 4.7565 0.76799 4.57899Q0.851946 4.40148 0.944512 4.2283Q1.03708 4.05512 1.13803 3.88669Q1.23898 3.71826 1.34807 3.55499Q1.45717 3.39172 1.57414 3.234Q1.69112 3.07628 1.81569 2.92449Q1.94026 2.7727 2.07213 2.6272Q2.204 2.4817 2.34285 2.34285Q2.4817 2.204 2.6272 2.07213Q2.7727 1.94026 2.92449 1.81569Q3.07628 1.69112 3.234 1.57414Q3.39172 1.45717 3.55499 1.34807Q3.71826 1.23898 3.88669 1.13803Q4.05512 1.03708 4.2283 0.944512Q4.40148 0.851946 4.57899 0.76799Q4.7565 0.684033 4.93791 0.608888Q5.11933 0.533742 5.30422 0.467589Q5.4891 0.401436 5.67701 0.344434Q5.86492 0.287433 6.0554 0.23972Q6.24588 0.192007 6.43847 0.153699Q6.63106 0.11539 6.8253 0.0865771Q7.01954 0.0577644 7.21496 0.0385174Q7.41038 0.0192703 7.60651 0.00963514Q7.80264 0 7.999 0Z" id="Rectangle-2-Copy" fill="#1288EC" fill-rule="evenodd" stroke="none" filter="url(#filter_1)" />
    <g id="icons8_facebook" transform="translate(8 6)">
      <path d="M0 0L44 0L44 44L0 44L0 0Z" id="Background" fill="none" fill-rule="evenodd" stroke="none" />
      <g clip-path="url(#mask_1)">
        <path d="M4.4 0C1.98043 0 0 1.98043 0 4.4L0 32.56C0 34.9796 1.98043 36.96 4.4 36.96L19.2122 36.96C19.3072 36.9757 19.4042 36.9757 19.4992 36.96L24.4922 36.96C24.5872 36.9757 24.6842 36.9757 24.7792 36.96L32.56 36.96C34.9796 36.96 36.96 34.9796 36.96 32.56L36.96 4.4C36.96 1.98043 34.9796 0 32.56 0L4.4 0L4.4 0ZM4.4 1.76001L32.56 1.76001C34.0283 1.76001 35.2 2.93174 35.2 4.40001L35.2 32.56C35.2 34.0283 34.0283 35.2 32.56 35.2L25.52 35.2L25.52 22.88L28.8819 22.88L30.1142 16.72L25.52 16.72L25.52 14.96C25.52 14.4694 25.5667 14.4311 25.7314 14.3241C25.8961 14.2171 26.4051 14.08 27.28 14.08L29.92 14.08L29.92 9.12485L29.4181 8.88595C29.4181 8.88595 27.3967 7.92001 24.64 7.92001C22.66 7.92001 21.0334 8.70889 19.9925 10.01C18.9516 11.3111 18.48 13.0533 18.48 14.96L18.48 16.72L15.84 16.72L15.84 22.88L18.48 22.88L18.48 35.2L4.4 35.2C2.93174 35.2 1.76 34.0283 1.76 32.56L1.76 4.40001C1.76 2.93174 2.93174 1.76001 4.4 1.76001L4.4 1.76001ZM24.64 9.67999C26.4696 9.67999 27.6209 10.0834 28.16 10.297L28.16 12.32L27.28 12.32C26.2673 12.32 25.4557 12.4038 24.7723 12.8476C24.089 13.2915 23.76 14.1341 23.76 14.96L23.76 18.48L27.9658 18.48L27.4381 21.12L23.76 21.12L23.76 35.2L20.24 35.2L20.24 21.12L17.6 21.12L17.6 18.48L20.24 18.48L20.24 14.96C20.24 13.3467 20.6484 12.0089 21.3675 11.11C22.0866 10.2111 23.1 9.67999 24.64 9.67999L24.64 9.67999Z" transform="translate(3.519989 3.519989)" id="Shape" fill="#FFFFFF" fill-rule="evenodd" stroke="none" />
      </g>
    </g>
  </g>
</svg>